<?xml version="1.0" ?><!DOCTYPE svg  PUBLIC '-//W3C//DTD SVG 1.1//EN'  'http://www.w3.org/Graphics/SVG/1.1/DTD/svg11.dtd'><svg enable-background="new 0 0 454.982 512" height="512px" id="Layer_1" version="1.1" viewBox="0 0 454.982 512" width="454.982px" xml:space="preserve" xmlns="http://www.w3.org/2000/svg" xmlns:xlink="http://www.w3.org/1999/xlink"><symbol id="Illuminated_Box_with_Arrow" viewBox="-36.896 -24.11 73.791 48.219"><g><linearGradient gradientTransform="matrix(1 0 0 1 0.0034 0)" gradientUnits="userSpaceOnUse" id="SVGID_1_" x1="-0.0034" x2="-0.0034" y1="-23.4736" y2="23.4844"><stop offset="0" style="stop-color:#DED641"/><stop offset="0.618" style="stop-color:#D6B22C"/><stop offset="0.6292" style="stop-color:#D8CF3B"/><stop offset="0.9831" style="stop-color:#E4E061"/></linearGradient><polygon fill="url(#SVGID_1_)" points="36.771,-4.317 6.689,-4.317 6.689,-13.895 12.758,-13.895 0.623,-23.474 -11.514,-13.895     -5.446,-13.895 -5.446,-4.317 -36.771,-4.317 -36.771,23.484 36.771,23.484   "/><linearGradient gradientTransform="matrix(1 0 0 1 0.0034 0)" gradientUnits="userSpaceOnUse" id="SVGID_2_" x1="-0.0034" x2="-0.0034" y1="-23.4736" y2="23.4844"><stop offset="0" style="stop-color:#925DA6;stop-opacity:0.13"/><stop offset="0.166" style="stop-color:#905DA6;stop-opacity:0.1839"/><stop offset="0.2904" style="stop-color:#895BA6;stop-opacity:0.2243"/><stop offset="0.4013" style="stop-color:#7D59A5;stop-opacity:0.2603"/><stop offset="0.5042" style="stop-color:#6B57A5;stop-opacity:0.2936"/><stop offset="0.6007" style="stop-color:#5254A4;stop-opacity:0.325"/><stop offset="0.6778" style="stop-color:#3351A3;stop-opacity:0.35"/><stop offset="1" style="stop-color:#4965AF"/></linearGradient><polygon fill="url(#SVGID_2_)" points="36.771,-4.317 6.689,-4.317 6.689,-13.895 12.758,-13.895 0.623,-23.474 -11.514,-13.895     -5.446,-13.895 -5.446,-4.317 -36.771,-4.317 -36.771,23.484 36.771,23.484   "/><radialGradient cx="-0.0034" cy="0.0054" gradientTransform="matrix(1 0 0 0.5 0.0034 0.0029)" gradientUnits="userSpaceOnUse" id="SVGID_3_" r="30.8491"><stop offset="0" style="stop-color:#78C589;stop-opacity:0"/><stop offset="0.1812" style="stop-color:#77C48B;stop-opacity:0.1269"/><stop offset="0.3402" style="stop-color:#76C291;stop-opacity:0.2382"/><stop offset="0.4909" style="stop-color:#73C09B;stop-opacity:0.3436"/><stop offset="0.6364" style="stop-color:#6EBDAA;stop-opacity:0.4455"/><stop offset="0.7784" style="stop-color:#67B9BD;stop-opacity:0.5449"/><stop offset="0.9156" style="stop-color:#5EB4D2;stop-opacity:0.6409"/><stop offset="1" style="stop-color:#54B1E4;stop-opacity:0.7"/></radialGradient><polygon fill="url(#SVGID_3_)" opacity="0.51" points="36.771,-4.317 6.689,-4.317 6.689,-13.895 12.758,-13.895 0.623,-23.474     -11.514,-13.895 -5.446,-13.895 -5.446,-4.317 -36.771,-4.317 -36.771,23.484 36.771,23.484   "/><linearGradient gradientTransform="matrix(1 0 0 1 0.0034 0)" gradientUnits="userSpaceOnUse" id="SVGID_4_" x1="-0.0034" x2="-0.0034" y1="23.4844" y2="-23.4736"><stop offset="0" style="stop-color:#FFFFFF;stop-opacity:0.77"/><stop offset="0.45" style="stop-color:#FFFFFF;stop-opacity:0"/><stop offset="0.4586" style="stop-color:#EFF1F8;stop-opacity:0.0025"/><stop offset="0.4834" style="stop-color:#C6CEE5;stop-opacity:0.0097"/><stop offset="0.5112" style="stop-color:#A0ADD4;stop-opacity:0.0178"/><stop offset="0.5414" style="stop-color:#8091C5;stop-opacity:0.0266"/><stop offset="0.5749" style="stop-color:#647AB9;stop-opacity:0.0363"/><stop offset="0.6126" style="stop-color:#4E67AF;stop-opacity:0.0473"/><stop offset="0.6567" style="stop-color:#3D59A7;stop-opacity:0.0601"/><stop offset="0.7112" style="stop-color:#324EA2;stop-opacity:0.076"/><stop offset="0.7877" style="stop-color:#2B499F;stop-opacity:0.0982"/><stop offset="1" style="stop-color:#29479E;stop-opacity:0.16"/></linearGradient><polygon fill="url(#SVGID_4_)" opacity="0.7" points="36.771,-4.317 6.689,-4.317 6.689,-13.895 12.758,-13.895 0.623,-23.474     -11.514,-13.895 -5.446,-13.895 -5.446,-4.317 -36.771,-4.317 -36.771,23.484 36.771,23.484   "/><g opacity="0.49"><path d="M-9.63-14.798c1.613,0,3.225,0,4.838,0c0.003,0,0.002,0.237,0.002,0.25c0,3.628,0,7.256,0,10.885     c0,0.013,0,0.25-0.002,0.25c-5.72,0-11.44,0-17.16,0c-3.504,0-7.009,0-10.514,0c-1.336,0-3.648-0.539-3.648,0.492     c0,6.948,0,13.896,0,20.844c0,0.85-0.078,4.659,0.07,4.659c1.218,0,2.437,0,3.655,0c14.232,0,28.465,0,42.697,0     c6.663,0,13.326,0,19.989,0c1.655,0,3.309,0,4.964,0c1.364,0,0.853-0.239,0.853-1.9c0-5.626,0-11.252,0-16.879     c0-2.241,0-4.482,0-6.723c0-0.943-0.682-0.492-1.875-0.492c-9.401,0-18.802,0-28.203,0c-0.003,0-0.002-0.237-0.002-0.25     c0-3.628,0-7.256,0-10.885c0-0.013,0-0.25,0.002-0.25c1.103,0,2.205,0,3.308,0c1.497,0,1.82,0.729,0.465-0.342     c-2.707-2.136-5.413-4.272-8.119-6.409c-1.827-1.442-2.974,0.664-4.675,2.007c-2.214,1.748-4.429,3.496-6.644,5.244     C-9.552-14.36-9.714-14.732-9.63-14.798c3.418-2.697,6.835-5.395,10.253-8.092c0.396-0.312,9.222,7.28,10.251,8.092     c0.036,0.028-0.019,0.5,0,0.5c-0.502,0-4.836,0.139-4.836-0.142c0,2.253,0,4.506,0,6.76c0,0.749-0.186,3.767,0.163,3.767     c1.391,0,2.782,0,4.172,0c8.581,0,17.162,0,25.743,0c0.003,0,0.002,0.237,0.002,0.25c0,8.832,0,17.663,0,26.494     c0,0.013,0,0.25-0.002,0.25c-24.078,0-48.156,0-72.233,0c-0.003,0-0.002-0.237-0.002-0.25c0-8.832,0-17.663,0-26.494     c0-0.013,0-0.25,0.002-0.25c8.747,0,17.494,0,26.241,0c1.48,0,2.96,0,4.441,0c1.241,0,0.64-1.512,0.64-2.86     c0-2.453,0-4.905,0-7.358c0-0.387-3.995-0.167-4.835-0.167C-9.634-14.298-9.634-14.798-9.63-14.798z" fill="#FFFFFF"/></g><polygon fill="none" points="36.771,-4.317 6.689,-4.317     6.689,-13.895 12.758,-13.895 0.623,-23.474 -11.514,-13.895 -5.446,-13.895 -5.446,-4.317 -36.771,-4.317 -36.771,23.484     36.771,23.484   " stroke="#4B68B1" stroke-miterlimit="1" stroke-width="0.25"/><g opacity="0.58"><path d="M36.771-3.692c-10.027,0-20.054,0-30.081,0c-0.007,0-0.006-0.592-0.006-0.625c0-3.192,0-6.385,0-9.577     c0-0.033-0.001-0.625,0.006-0.625c2.023,0,4.045,0,6.068,0c0,0.417,0,0.833,0,1.25c-4.045-3.193-8.09-6.386-12.135-9.579     c-0.468-0.37-10.918,8.617-12.137,9.579c0-0.417,0-0.833,0-1.25c2.022,0,4.045,0,6.068,0c0.007,0,0.006,0.592,0.006,0.625     c0,3.192,0,6.385,0,9.577c0,0.033,0.001,0.625-0.006,0.625c-5.72,0-11.44,0-17.16,0c-3.504,0-7.009,0-10.514,0     c-1.003,0-2.006,0-3.009,0c-0.865,0-0.636-0.979-0.636,0.083c0,6.917,0,13.834,0,20.751c0,2.099,0,4.197,0,6.295     c0-1.053,1.89-0.579,2.784-0.579c13.796,0,27.592,0,41.389,0c7.066,0,14.132,0,21.198,0c2.047,0,4.094,0,6.141,0     c1.262,0,2.017,0.031,2.017,0.22c0-9.132,0-18.264,0-27.396c0-0.707,0.013-0.707,0.013,0c0,9.267,0,18.535,0,27.802     c0,0.033,0.001,0.625-0.006,0.625c-24.514,0-49.027,0-73.541,0c-0.007,0-0.006-0.592-0.006-0.625c0-9.267,0-18.535,0-27.802     c0-0.033-0.001-0.625,0.006-0.625c8.747,0,17.494,0,26.241,0c1.48,0,2.96,0,4.441,0c0.534,0,0.636-0.164,0.636,0.503     c0-1.083,0-2.166,0-3.249c0-1.241,0-2.482,0-3.723c0-0.496,0-0.991,0-1.487c0-1.314,0.075-0.371-0.164-0.371     c-1.966,0-3.932,0-5.898,0c0.047,0-0.089-1.179,0-1.25c4.046-3.193,8.091-6.386,12.137-9.579     c0.468-0.37,10.917,8.617,12.135,9.579c0.089,0.071-0.047,1.25,0,1.25c-1.813,0-3.625,0-5.437,0     c-0.832,0-0.625-0.957-0.625,0.371c0,1.423,0,2.847,0,4.271c0,1.105,0,2.21,0,3.314c0,1.326-0.118,0.371,0.159,0.371     c1.391,0,2.782,0,4.172,0c8.581,0,17.162,0,25.743,0C36.78-4.942,36.78-3.692,36.771-3.692z" fill="#4762AE"/></g></g></symbol><symbol id="Illuminated_Green_Decision_Diamond" viewBox="-39.141 -23.933 78.281 47.866"><g><linearGradient gradientTransform="matrix(1 0 0 1 0.0171 0)" gradientUnits="userSpaceOnUse" id="SVGID_5_" x1="-0.0171" x2="-0.0171" y1="-23.4648" y2="23.4473"><stop offset="0" style="stop-color:#008146"/><stop offset="0.618" style="stop-color:#01582F"/><stop offset="0.6292" style="stop-color:#006F43"/><stop offset="0.9831" style="stop-color:#156734"/></linearGradient><polygon fill="url(#SVGID_5_)" points="0,-23.465 -39.092,-0.01 0,23.447 39.092,-0.01   "/><linearGradient gradientTransform="matrix(1 0 0 1 0.0171 0)" gradientUnits="userSpaceOnUse" id="SVGID_6_" x1="-0.0171" x2="-0.0171" y1="-23.4648" y2="23.4473"><stop offset="0" style="stop-color:#014B2C;stop-opacity:0.22"/><stop offset="0.5" style="stop-color:#062818"/><stop offset="0.5303" style="stop-color:#1B3A23;stop-opacity:0.9473"/><stop offset="0.5833" style="stop-color:#35572F;stop-opacity:0.855"/><stop offset="0.6393" style="stop-color:#4C7438;stop-opacity:0.7575"/><stop offset="0.6978" style="stop-color:#628E3C;stop-opacity:0.6558"/><stop offset="0.7595" style="stop-color:#73A43E;stop-opacity:0.5484"/><stop offset="0.826" style="stop-color:#80B43F;stop-opacity:0.4328"/><stop offset="0.9005" style="stop-color:#88BF3F;stop-opacity:0.3031"/><stop offset="1" style="stop-color:#8BC540;stop-opacity:0.13"/></linearGradient><polygon fill="url(#SVGID_6_)" points="0,-23.465 -39.092,-0.01 0,23.447 39.092,-0.01   "/><radialGradient cx="-0.0171" cy="-0.0088" gradientTransform="matrix(1 0 0 0.5 0.0171 -0.0044)" gradientUnits="userSpaceOnUse" id="SVGID_7_" r="32.2364"><stop offset="0" style="stop-color:#8BC540;stop-opacity:0"/><stop offset="0.2175" style="stop-color:#7EBA41;stop-opacity:0.1522"/><stop offset="0.6135" style="stop-color:#5BA444;stop-opacity:0.4295"/><stop offset="1" style="stop-color:#269045;stop-opacity:0.7"/></radialGradient><polygon fill="url(#SVGID_7_)" opacity="0.51" points="0,-23.465 -39.092,-0.01 0,23.447 39.092,-0.01   "/><linearGradient gradientTransform="matrix(1 0 0 1 0.0171 0)" gradientUnits="userSpaceOnUse" id="SVGID_8_" x1="-0.0171" x2="-0.0171" y1="23.4473" y2="-23.4648"><stop offset="0" style="stop-color:#FFFFFF;stop-opacity:0.77"/><stop offset="0.45" style="stop-color:#FFFFFF;stop-opacity:0"/><stop offset="0.4511" style="stop-color:#FCFDFD;stop-opacity:3.322697e-004"/><stop offset="0.4735" style="stop-color:#CFD2D1;stop-opacity:0.0068"/><stop offset="0.4976" style="stop-color:#A6ACA9;stop-opacity:0.0138"/><stop offset="0.5246" style="stop-color:#808985;stop-opacity:0.0217"/><stop offset="0.554" style="stop-color:#606B66;stop-opacity:0.0303"/><stop offset="0.5866" style="stop-color:#44514C;stop-opacity:0.0397"/><stop offset="0.6233" style="stop-color:#2E3D37;stop-opacity:0.0504"/><stop offset="0.6662" style="stop-color:#1D2D27;stop-opacity:0.0629"/><stop offset="0.7192" style="stop-color:#12221B;stop-opacity:0.0783"/><stop offset="0.7936" style="stop-color:#0B1C15;stop-opacity:0.0999"/><stop offset="1" style="stop-color:#091A13;stop-opacity:0.16"/></linearGradient><polygon fill="url(#SVGID_8_)" opacity="0.7" points="0,-23.465 -39.092,-0.01 0,23.447 39.092,-0.01   "/><g opacity="0.49"><path d="M-39.088-0.19c10.611,6.363,21.222,12.727,31.832,19.09c1.758,1.054,6.096,5.053,8.095,3.853     c5.248-3.15,10.496-6.299,15.743-9.449C22.871,9.529,29.16,5.754,35.448,1.98c1.205-0.723,2.41-1.446,3.615-2.169     c-0.556,0.333-2.612-1.221-3.615-1.822C23.91-8.93,12.373-15.849,0.835-22.767c-1.452-0.871-2.582,0.547-3.971,1.38     c-4.481,2.688-8.963,5.377-13.444,8.066c-7.502,4.501-15.005,9.003-22.508,13.504C-39.035,0.153-39.145-0.156-39.088-0.19     C-26.059-8.008-13.029-15.825,0-23.643c0.49-0.294,5.438,3.261,5.949,3.567c4.39,2.632,8.78,5.265,13.17,7.897     c6.656,3.992,13.313,7.983,19.969,11.974c0.015,0.009,0.015,0.366,0,0.375C26.06,7.99,13.032,15.809,0.004,23.628     c-0.49,0.294-5.439-3.262-5.95-3.568c-4.391-2.633-8.781-5.266-13.171-7.899c-6.657-3.992-13.314-7.984-19.971-11.977     C-39.145,0.15-39.035-0.159-39.088-0.19z" fill="#FFFFFF"/></g><polygon fill="none" points="0,-23.465 -39.092,-0.01 0,23.447     39.092,-0.01   " stroke="#008F53" stroke-miterlimit="1" stroke-width="0.1874"/><g opacity="0.58"><path d="M0-22.997C-10.611-16.63-21.222-10.264-31.832-3.897c-2.045,1.227-4.09,2.454-6.135,3.681     c-1.507,0.904-1.507-0.491,0,0.413c5.433,3.26,10.867,6.521,16.3,9.781c6.177,3.707,12.354,7.413,18.531,11.12     c3.516,2.11,3.205,1.84,6.776-0.303C15.179,13.871,26.718,6.947,38.256,0.023c1.231-0.738,0.853,0.446,0.457,0.208     c-1.087-0.652-2.174-1.305-3.261-1.957c-4.595-2.757-9.19-5.514-13.785-8.271C14.444-14.33,7.222-18.663,0-22.997     c-0.143-0.085,0.132-0.857,0-0.937C13.031-16.115,26.061-8.296,39.092-0.478c0.037,0.022,0.037,0.915,0,0.937     C26.061,8.278,13.031,16.097,0,23.916c-0.49,0.294-5.439-3.264-5.95-3.57c-4.391-2.634-8.781-5.269-13.171-7.903     c-6.657-3.995-13.314-7.989-19.971-11.984c-0.037-0.022-0.037-0.915,0-0.937C-26.062-8.296-13.031-16.115,0-23.933     C-0.132-23.854,0.143-23.082,0-22.997z" fill="#023B23"/></g></g></symbol><symbol id="Illuminated_Orange_Delay_Example" viewBox="-22.536 -14.071 45.071 28.143"><g><path d="M11.892,13.446H-9.3h-7.661h-5.45v-26.893H-9.3l0,0h21.191c5.809,0,10.519,6.021,10.519,13.447    C22.41,7.428,17.7,13.446,11.892,13.446z" fill="#F6871F"/><linearGradient gradientTransform="matrix(1 0 0 1 -0.0664 0)" gradientUnits="userSpaceOnUse" id="SVGID_9_" x1="0.0659" x2="0.0659" y1="-13.4463" y2="13.4463"><stop offset="0" style="stop-color:#F69320;stop-opacity:0.22"/><stop offset="0.5" style="stop-color:#F15B29"/><stop offset="0.5686" style="stop-color:#F26E27;stop-opacity:0.8807"/><stop offset="0.6562" style="stop-color:#F47F24;stop-opacity:0.7282"/><stop offset="0.7511" style="stop-color:#F58A22;stop-opacity:0.563"/><stop offset="0.8577" style="stop-color:#F69021;stop-opacity:0.3776"/><stop offset="1" style="stop-color:#F69320;stop-opacity:0.13"/></linearGradient><path d="M11.892,13.446H-9.3h-7.661h-5.45v-26.893H-9.3l0,0h21.191c5.809,0,10.519,6.021,10.519,13.447    C22.41,7.428,17.7,13.446,11.892,13.446z" fill="url(#SVGID_9_)"/><radialGradient cx="0.0659" cy="0" gradientTransform="matrix(1 0 0 0.5 -0.0664 0)" gradientUnits="userSpaceOnUse" id="SVGID_10_" r="18.4801"><stop offset="0" style="stop-color:#F69320;stop-opacity:0"/><stop offset="0.2369" style="stop-color:#F58A22;stop-opacity:0.1658"/><stop offset="0.6686" style="stop-color:#F37326;stop-opacity:0.468"/><stop offset="1" style="stop-color:#F15B29;stop-opacity:0.7"/></radialGradient><path d="M11.892,13.446H-9.3h-7.661h-5.45v-26.893H-9.3l0,0h21.191    c5.809,0,10.519,6.021,10.519,13.447C22.41,7.428,17.7,13.446,11.892,13.446z" fill="url(#SVGID_10_)" opacity="0.51"/><linearGradient gradientTransform="matrix(1 0 0 1 -0.0664 0)" gradientUnits="userSpaceOnUse" id="SVGID_11_" x1="0.0659" x2="0.0659" y1="13.4463" y2="-13.4463"><stop offset="0" style="stop-color:#FFFFFF;stop-opacity:0.77"/><stop offset="0.45" style="stop-color:#FFFFFF;stop-opacity:0"/><stop offset="0.4586" style="stop-color:#FEF3EF;stop-opacity:0.0025"/><stop offset="0.4834" style="stop-color:#FBD3C6;stop-opacity:0.0097"/><stop offset="0.5112" style="stop-color:#F9B6A0;stop-opacity:0.0178"/><stop offset="0.5414" style="stop-color:#F79D80;stop-opacity:0.0266"/><stop offset="0.5749" style="stop-color:#F58964;stop-opacity:0.0363"/><stop offset="0.6126" style="stop-color:#F3784E;stop-opacity:0.0473"/><stop offset="0.6567" style="stop-color:#F26B3D;stop-opacity:0.0601"/><stop offset="0.7112" style="stop-color:#F26232;stop-opacity:0.076"/><stop offset="0.7877" style="stop-color:#F15C2B;stop-opacity:0.0982"/><stop offset="1" style="stop-color:#F15B29;stop-opacity:0.16"/></linearGradient><path d="M11.892,13.446H-9.3h-7.661h-5.45v-26.893H-9.3l0,0h21.191    c5.809,0,10.519,6.021,10.519,13.447C22.41,7.428,17.7,13.446,11.892,13.446z" fill="url(#SVGID_11_)" opacity="0.7"/><g opacity="0.49"><path d="M-21.208-12.246c0,4.248,0,8.495,0,12.743c0,1.596-0.386,11.5,0.341,11.5c10.332,0,20.663,0,30.994,0     c8.628,0,12.416-8.108,10.455-16.167c-1.546-6.353-6.548-7.825-12.132-7.825c-9.887,0-19.773,0-29.66,0c-0.004,0-0.004-0.5,0-0.5     c8.368,0,16.735,0,25.103,0c3.045,0,6.129-0.153,9.167,0.096c5.657,0.463,8.153,7.675,8.153,12.401     c0,5.065-2.168,10.078-7.029,12.121c-2.595,1.091-6.752,0.375-9.441,0.375c-8.651,0-17.301,0-25.952,0     c-0.003,0-0.002-0.237-0.002-0.25c0-8.164,0-16.328,0-24.492C-21.213-12.529-21.208-12.529-21.208-12.246z" fill="#FFFFFF"/></g><path d="M11.892,13.446H-9.3h-7.661h-5.45v-26.893H-9.3    l0,0h21.191c5.809,0,10.519,6.021,10.519,13.447C22.41,7.428,17.7,13.446,11.892,13.446z" fill="none" stroke="#F15B29" stroke-miterlimit="1" stroke-width="0.25"/><g opacity="0.58"><path d="M11.892,14.071c-11.434,0-22.868,0-34.302,0c-0.007,0-0.006-0.592-0.006-0.625c0-8.964,0-17.928,0-26.893     c0-0.033-0.001-0.625,0.006-0.625c10.971,0,21.941,0,32.912,0C25.608-14.071,26.841,13.042,11.892,14.071     c0.019-0.001-0.038-1.248,0-1.25c11.325-0.779,12.924-16.058,6.212-23.048c-3.727-3.88-11-2.595-15.815-2.595     c-4.317,0-8.634,0-12.952,0c-3.233,0-6.466,0-9.699,0c-2.347,0-2.042-1.085-2.042,1.459c0,6.137,0,12.275,0,18.412     c0,2.07,0,4.141,0,6.211c0-0.81,4.427-0.439,5.595-0.439c9.567,0,19.134,0,28.701,0C11.901,12.821,11.901,14.071,11.892,14.071z" fill="#F69320"/></g></g></symbol><symbol id="Illuminated_Orange_Round_Org" viewBox="-13.106 -13.105 26.213 26.212"><g><linearGradient gradientUnits="userSpaceOnUse" id="SVGID_12_" x1="0" x2="-1.058336e-006" y1="-12.1055" y2="12.1064"><stop offset="0" style="stop-color:#F06A22"/><stop offset="0.618" style="stop-color:#F59842"/><stop offset="0.6292" style="stop-color:#F59B43"/><stop offset="0.9831" style="stop-color:#F49440"/></linearGradient><path d="M12.106,0.001c0-6.686-5.421-12.106-12.106-12.106c-6.687,0-12.106,5.421-12.106,12.106    S-6.687,12.106,0,12.106C6.686,12.106,12.106,6.687,12.106,0.001z" fill="url(#SVGID_12_)"/><linearGradient gradientUnits="userSpaceOnUse" id="SVGID_13_" x1="0" x2="-1.058336e-006" y1="-12.1055" y2="12.1064"><stop offset="0" style="stop-color:#E5872B"/><stop offset="0.618" style="stop-color:#D26228"/><stop offset="0.8278" style="stop-color:#DF832D;stop-opacity:0.4"/><stop offset="0.9831" style="stop-color:#FFFFFF;stop-opacity:0"/></linearGradient><path d="M12.106,0.001c0-6.686-5.421-12.106-12.106-12.106c-6.687,0-12.106,5.421-12.106,12.106    S-6.687,12.106,0,12.106C6.686,12.106,12.106,6.687,12.106,0.001z" fill="url(#SVGID_13_)"/><linearGradient gradientUnits="userSpaceOnUse" id="SVGID_14_" x1="0" x2="-1.058336e-006" y1="12.1064" y2="-12.1055"><stop offset="0" style="stop-color:#FFFFFF;stop-opacity:0.77"/><stop offset="0.2033" style="stop-color:#FFFFFF;stop-opacity:0.65"/><stop offset="0.3448" style="stop-color:#FFFFFF;stop-opacity:0.65"/><stop offset="0.3462" style="stop-color:#FFFFFF;stop-opacity:0.65"/><stop offset="0.511" style="stop-color:#FFFFFF;stop-opacity:0"/><stop offset="0.5118" style="stop-color:#FFFEFD;stop-opacity:2.696514e-004"/><stop offset="0.5342" style="stop-color:#FDE6D4;stop-opacity:0.0076"/><stop offset="0.5585" style="stop-color:#FBD2B0;stop-opacity:0.0155"/><stop offset="0.5858" style="stop-color:#F9BF90;stop-opacity:0.0245"/><stop offset="0.616" style="stop-color:#F8AF74;stop-opacity:0.0344"/><stop offset="0.6501" style="stop-color:#F7A35E;stop-opacity:0.0455"/><stop offset="0.69" style="stop-color:#F6994D;stop-opacity:0.0586"/><stop offset="0.7392" style="stop-color:#F59242;stop-opacity:0.0747"/><stop offset="0.8083" style="stop-color:#F58E3B;stop-opacity:0.0973"/><stop offset="1" style="stop-color:#F58D39;stop-opacity:0.16"/></linearGradient><path d="M12.106,0.001c0-6.686-5.421-12.106-12.106-12.106    c-6.687,0-12.106,5.421-12.106,12.106S-6.687,12.106,0,12.106C6.686,12.106,12.106,6.687,12.106,0.001z" fill="url(#SVGID_14_)" opacity="0.7"/><g opacity="0.49"><path d="M0-9.67c-5.289,0.286-9.247,3.459-10.654,8.569C-12.306,4.893-4.834,9.411,0,9.671     c5.212,0.282,9.359-3.869,10.654-8.568C12.306-4.891,4.834-9.41,0-9.67c-0.063-0.003,0.026-2.468,0-2.47     c14.557,0.787,14.557,23.495,0,24.281c-6.868,0.371-10.918-6.051-10.918-12.14c0-6.607,4.06-11.771,10.918-12.141     C-0.026-12.139,0.063-9.674,0-9.67z" fill="#FFFFFF"/></g><path d="M12.106,0.001c0-6.686-5.421-12.106-12.106-12.106    c-6.687,0-12.106,5.421-12.106,12.106S-6.687,12.106,0,12.106C6.686,12.106,12.106,6.687,12.106,0.001z" fill="none" stroke="#F59B45" stroke-miterlimit="1" stroke-width="2"/><g opacity="0.58"><path d="M12.106,0.199c-0.762-14.14-20.189-16.21-23.933-2.589C-13.936,5.28-6.937,11.527,0,11.901     c6.84,0.368,11.766-5.789,12.106-12.098C12.101-0.101,12.114,0.076,12.106,0.199c-0.842,15.646-24.214,15.603-24.214-0.198     c0-15.802,23.373-15.845,24.215-0.198C12.114-0.074,12.101,0.103,12.106,0.199z" fill="#F59B43"/></g></g></symbol><symbol id="Illuminated_Yellow_Outcome" viewBox="-35.53 -14.514 71.062 29.027"><g><polygon fill="#F6DD1F" points="35.406,-13.889 -35.405,-13.889 -35.405,13.889 35.406,13.889   "/><linearGradient gradientTransform="matrix(1 0 0 1 -0.1025 0)" gradientUnits="userSpaceOnUse" id="SVGID_15_" x1="0.103" x2="0.103" y1="-13.8887" y2="13.8887"><stop offset="0" style="stop-color:#F6E133;stop-opacity:0.22"/><stop offset="0.5" style="stop-color:#F0B043"/><stop offset="0.5597" style="stop-color:#F1BE40;stop-opacity:0.8961"/><stop offset="0.6492" style="stop-color:#F3CE3B;stop-opacity:0.7405"/><stop offset="0.7461" style="stop-color:#F4D837;stop-opacity:0.5719"/><stop offset="0.8548" style="stop-color:#F5DF34;stop-opacity:0.3826"/><stop offset="1" style="stop-color:#F6E133;stop-opacity:0.13"/></linearGradient><polygon fill="url(#SVGID_15_)" points="35.406,-13.889 -35.405,-13.889 -35.405,13.889 35.406,13.889   "/><radialGradient cx="0.103" cy="0" gradientTransform="matrix(1 0 0 0.5 -0.1025 0)" gradientUnits="userSpaceOnUse" id="SVGID_16_" r="26.893"><stop offset="0" style="stop-color:#F6E133;stop-opacity:0"/><stop offset="0.2471" style="stop-color:#F4D837;stop-opacity:0.1729"/><stop offset="0.6972" style="stop-color:#F2C23F;stop-opacity:0.488"/><stop offset="1" style="stop-color:#F0B043;stop-opacity:0.7"/></radialGradient><polygon fill="url(#SVGID_16_)" opacity="0.51" points="35.406,-13.889 -35.405,-13.889 -35.405,13.889 35.406,13.889   "/><linearGradient gradientTransform="matrix(1 0 0 1 -0.1025 0)" gradientUnits="userSpaceOnUse" id="SVGID_17_" x1="0.103" x2="0.103" y1="13.8887" y2="-13.8887"><stop offset="0" style="stop-color:#FFFFFF;stop-opacity:0.77"/><stop offset="0.45" style="stop-color:#FFFFFF;stop-opacity:0"/><stop offset="0.4707" style="stop-color:#FCF1DE;stop-opacity:0.006"/><stop offset="0.4983" style="stop-color:#F9E2BA;stop-opacity:0.014"/><stop offset="0.5293" style="stop-color:#F7D49A;stop-opacity:0.0231"/><stop offset="0.5636" style="stop-color:#F5C97E;stop-opacity:0.0331"/><stop offset="0.6024" style="stop-color:#F3C068;stop-opacity:0.0443"/><stop offset="0.6477" style="stop-color:#F2B957;stop-opacity:0.0575"/><stop offset="0.7036" style="stop-color:#F1B44C;stop-opacity:0.0738"/><stop offset="0.7821" style="stop-color:#F0B145;stop-opacity:0.0966"/><stop offset="1" style="stop-color:#F0B043;stop-opacity:0.16"/></linearGradient><polygon fill="url(#SVGID_17_)" opacity="0.7" points="35.406,-13.889 -35.405,-13.889 -35.405,13.889 35.406,13.889   "/><g opacity="0.49"><path d="M-35.243-13.729c0,5.868,0,11.736,0,17.604c0,2.926,0,5.853,0,8.779c0,1.262,0.066,0.825,1.436,0.825     c13.256,0,26.512,0,39.767,0c7.146,0,14.292,0,21.437,0c2.028,0,4.057,0,6.085,0c1.154,0,1.761,0.379,1.761-0.45     c0-6.832,0-13.663,0-20.494c0-2.072,0-4.145,0-6.217c0,0.43-2.532,0.204-2.918,0.204c-22.523,0-45.047,0-67.57,0     c-0.004,0-0.004-0.5,0-0.5c23.497,0,46.994,0,70.491,0c0.003,0,0.002,0.237,0.002,0.25c0,9.152,0,18.305,0,27.457     c0,0.013,0,0.25-0.002,0.25c-23.497,0-46.994,0-70.491,0c-0.003,0-0.002-0.237-0.002-0.25c0-9.152,0-18.305,0-27.457     C-35.248-14.011-35.243-14.011-35.243-13.729z" fill="#FFFFFF"/></g><polygon fill="none" points="35.406,-13.889 -35.405,-13.889     -35.405,13.889 35.406,13.889   " stroke="#F0B043" stroke-miterlimit="1" stroke-width="0.25"/><g opacity="0.58"><path d="M35.406-13.264c-23.314,0-46.628,0-69.942,0c-1.298,0-0.863-0.94-0.863,0.914c0,3.458,0,6.915,0,10.372     c0,3.716,0,7.433,0,11.148c0,1.21,0,2.421,0,3.631c0,1.446-0.118,0.462,0.158,0.462c11.582,0,23.164,0,34.746,0     c11.677,0,23.355,0,35.032,0c1.298,0,0.863,0.94,0.863-0.914c0-3.131,0-6.263,0-9.394c0-5.615,0-11.23,0-16.845     c0-0.707,0.013-0.707,0.013,0c0,9.259,0,18.518,0,27.777c0,0.033,0.001,0.625-0.006,0.625c-23.604,0-47.208,0-70.812,0     c-0.007,0-0.006-0.592-0.006-0.625c0-9.259,0-18.518,0-27.777c0-0.033-0.001-0.625,0.006-0.625c23.604,0,47.208,0,70.812,0     C35.416-14.514,35.416-13.264,35.406-13.264z" fill="#F6E133"/></g></g><polygon fill="#FFFFFF" points="-28.503,-13.122 -28.739,-13.122 -29.214,-13.122 -29.451,-13.122 -29.451,-12.968 -29.451,12.966    -29.451,13.121 -29.214,13.121 -28.739,13.121 -28.503,13.121 -28.503,12.966 -28.503,-12.968 -28.503,-13.122  "/><polygon fill="#FFFFFF" points="29.367,-13.122 29.132,-13.122 28.655,-13.122 28.419,-13.122 28.419,-12.968 28.419,12.966    28.419,13.121 28.655,13.121 29.132,13.121 29.367,13.121 29.367,12.966 29.367,-12.968 29.367,-13.122  "/></symbol><symbol id="Process_Rectangle_2" viewBox="-20.856 -10.915 41.712 21.83"><g><g><linearGradient gradientTransform="matrix(1 0 0 1 -0.0317 0)" gradientUnits="userSpaceOnUse" id="SVGID_18_" x1="0.0313" x2="0.0312" y1="-10.29" y2="10.29"><stop offset="0" style="stop-color:#4262AD"/><stop offset="0.618" style="stop-color:#4767B0"/><stop offset="0.6292" style="stop-color:#4B66B0"/><stop offset="0.9831" style="stop-color:#52C8E8"/></linearGradient><polygon fill="url(#SVGID_18_)" points="20.73,-10.29 -20.731,-10.29 -20.731,10.29 20.73,10.29    "/></g><g><linearGradient gradientTransform="matrix(1 0 0 1 -0.0317 0)" gradientUnits="userSpaceOnUse" id="SVGID_19_" x1="0.0313" x2="0.0312" y1="-10.29" y2="10.29"><stop offset="0" style="stop-color:#4965AF;stop-opacity:0.22"/><stop offset="0.5" style="stop-color:#3351A3"/><stop offset="0.5418" style="stop-color:#3E67A1;stop-opacity:0.9272"/><stop offset="0.5936" style="stop-color:#4C7D9F;stop-opacity:0.8372"/><stop offset="0.6482" style="stop-color:#59929B;stop-opacity:0.7421"/><stop offset="0.7053" style="stop-color:#64A396;stop-opacity:0.6429"/><stop offset="0.7654" style="stop-color:#6DB190;stop-opacity:0.5381"/><stop offset="0.8303" style="stop-color:#73BB8C;stop-opacity:0.4254"/><stop offset="0.903" style="stop-color:#77C289;stop-opacity:0.2988"/><stop offset="1" style="stop-color:#78C589;stop-opacity:0.13"/></linearGradient><polygon fill="url(#SVGID_19_)" points="20.73,-10.29 -20.731,-10.29 -20.731,10.29 20.73,10.29    "/></g><g opacity="0.51"><radialGradient cx="0.0313" cy="0" gradientTransform="matrix(1 0 0 0.5 -0.0317 0)" gradientUnits="userSpaceOnUse" id="SVGID_20_" r="16.3655"><stop offset="0" style="stop-color:#78C589;stop-opacity:0"/><stop offset="0.1302" style="stop-color:#76C290;stop-opacity:0.0911"/><stop offset="0.3686" style="stop-color:#70BEA3;stop-opacity:0.258"/><stop offset="0.6856" style="stop-color:#65B8C2;stop-opacity:0.4799"/><stop offset="1" style="stop-color:#54B1E4;stop-opacity:0.7"/></radialGradient><polygon fill="url(#SVGID_20_)" points="20.73,-10.29 -20.731,-10.29 -20.731,10.29 20.73,10.29    "/></g><g opacity="0.7"><linearGradient gradientTransform="matrix(1 0 0 1 -0.0317 0)" gradientUnits="userSpaceOnUse" id="SVGID_21_" x1="0.0313" x2="0.0312" y1="10.29" y2="-10.29"><stop offset="0" style="stop-color:#FFFFFF;stop-opacity:0.77"/><stop offset="0.45" style="stop-color:#FFFFFF;stop-opacity:0"/><stop offset="0.4586" style="stop-color:#EFF1F8;stop-opacity:0.0025"/><stop offset="0.4834" style="stop-color:#C6CEE5;stop-opacity:0.0097"/><stop offset="0.5112" style="stop-color:#A0ADD4;stop-opacity:0.0178"/><stop offset="0.5414" style="stop-color:#8091C5;stop-opacity:0.0266"/><stop offset="0.5749" style="stop-color:#647AB9;stop-opacity:0.0363"/><stop offset="0.6126" style="stop-color:#4E67AF;stop-opacity:0.0473"/><stop offset="0.6567" style="stop-color:#3D59A7;stop-opacity:0.0601"/><stop offset="0.7112" style="stop-color:#324EA2;stop-opacity:0.076"/><stop offset="0.7877" style="stop-color:#2B499F;stop-opacity:0.0982"/><stop offset="1" style="stop-color:#29479E;stop-opacity:0.16"/></linearGradient><polygon fill="url(#SVGID_21_)" points="20.73,-10.29 -20.731,-10.29 -20.731,10.29 20.73,10.29    "/></g><g opacity="0.49"><g><path d="M-20.075-9.636c0,5.482,0,10.964,0,16.446c0,1.609-0.604,2.577,0.763,2.577c2.024,0,4.049,0,6.073,0      c11.095,0,22.189,0,33.284,0c0.06,0,0.03-14.476,0.03-16.196c0-1.609,0.604-2.577-0.763-2.577c-2.024,0-4.049,0-6.073,0      c-11.105,0-22.21,0-33.316,0c-0.004,0-0.004-0.5,0-0.5c13.385,0,26.77,0,40.154,0c0.003,0,0.002,0.237,0.002,0.25      c0,6.424,0,12.848,0,19.272c0,0.013,0,0.25-0.002,0.25c-13.385,0-26.77,0-40.154,0c-0.003,0-0.002-0.237-0.002-0.25      c0-6.424,0-12.848,0-19.272C-20.08-9.919-20.075-9.919-20.075-9.636z" fill="#FFFFFF"/></g></g><g><polygon fill="none" points="20.73,-10.29 -20.731,-10.29      -20.731,10.29 20.73,10.29    " stroke="#4B68B1" stroke-miterlimit="1" stroke-width="0.25"/></g><g opacity="0.58"><g><path d="M20.73-9.665c-11.345,0-22.689,0-34.034,0c-2.124,0-4.248,0-6.371,0c-0.703,0-1.05,0.252-1.05-0.562      c0,0.87,0,1.741,0,2.611c0,5.948,0,11.895,0,17.843c0-1.187,11.152-0.562,12.537-0.562c7.164,0,14.327,0,21.491,0      c2.124,0,4.248,0,6.371,0c0.703,0,1.05-0.252,1.05,0.562c0-0.87,0-1.741,0-2.611c0-5.968,0-11.937,0-17.906      c0-0.707,0.013-0.707,0.013,0c0,6.86,0,13.72,0,20.58c0,0.033,0.001,0.625-0.006,0.625c-13.821,0-27.641,0-41.462,0      c-0.007,0-0.006-0.592-0.006-0.625c0-6.86,0-13.72,0-20.58c0-0.033-0.001-0.625,0.006-0.625c13.821,0,27.641,0,41.462,0      C20.74-10.915,20.74-9.665,20.73-9.665z" fill="#4762AE"/></g></g></g></symbol><g><g><circle cx="227.491" cy="284.51" fill="#ED1F24" r="220.035"/></g><g><g><path d="M227.491,512c-60.759,0-117.886-23.663-160.855-66.633C23.665,402.396,0,345.27,0,284.51     s23.665-117.886,66.636-160.856c42.97-42.97,100.097-66.635,160.855-66.635c60.761,0,117.886,23.665,160.855,66.635     s66.636,100.097,66.636,160.856s-23.666,117.886-66.636,160.856C345.377,488.337,288.252,512,227.491,512z M227.491,74.124     c-116.007,0-210.388,94.379-210.388,210.387c0,116.007,94.381,210.386,210.388,210.386s210.387-94.379,210.387-210.386     C437.878,168.502,343.498,74.124,227.491,74.124z" fill="#EAE2CA"/></g></g><g><path d="M228.224,71.464c-4.083,0-7.392-3.31-7.392-7.392V7.392c0-4.083,3.309-7.392,7.392-7.392    s7.392,3.31,7.392,7.392v56.68C235.615,68.154,232.307,71.464,228.224,71.464z" fill="#EAE2CA"/></g><g><path d="M273.082,14.784h-91.527c-4.083,0-7.392-3.31-7.392-7.392c0-4.083,3.309-7.392,7.392-7.392h91.527    c4.083,0,7.392,3.31,7.392,7.392C280.474,11.474,277.165,14.784,273.082,14.784z" fill="#EAE2CA"/></g><g><path d="M181.555,37.494c-4.083,0-7.392-3.31-7.392-7.392V7.392c0-4.083,3.309-7.392,7.392-7.392    s7.392,3.31,7.392,7.392v22.71C188.946,34.184,185.638,37.494,181.555,37.494z" fill="#EAE2CA"/></g><g><path d="M273.428,37.494c-4.083,0-7.392-3.31-7.392-7.392V7.392c0-4.083,3.309-7.392,7.392-7.392    s7.392,3.31,7.392,7.392v22.71C280.819,34.184,277.511,37.494,273.428,37.494z" fill="#EAE2CA"/></g><g><defs><circle cx="227.491" cy="284.51" id="SVGID_42_" r="220.035"/></defs><clipPath id="SVGID_23_"><use overflow="visible" xlink:href="#SVGID_42_"/></clipPath><g clip-path="url(#SVGID_23_)"><path d="M6.346,326.778c-1.601,0-3.212-0.518-4.566-1.583c-3.208-2.524-3.762-7.172-1.237-10.38l25.816-32.807     c2.525-3.209,7.173-3.76,10.38-1.238c3.208,2.525,3.762,7.172,1.237,10.38l-25.816,32.806     C10.701,325.811,8.534,326.778,6.346,326.778z" fill="#EAE2CA"/></g><g clip-path="url(#SVGID_23_)"><path d="M56.807,311.565c-1.37,0-2.756-0.38-3.993-1.177c-17.8-11.456-34.599-24.781-49.931-39.608     c-2.935-2.838-3.013-7.518-0.175-10.452c2.837-2.934,7.517-3.015,10.452-0.175c14.635,14.154,30.669,26.873,47.653,37.804     c3.434,2.209,4.426,6.783,2.216,10.216C61.616,310.368,59.236,311.565,56.807,311.565z" fill="#EAE2CA"/></g><g clip-path="url(#SVGID_23_)"><path d="M49.604,322.782c-1.367,0-2.751-0.379-3.986-1.172c-3.436-2.206-4.433-6.778-2.228-10.214l7.203-11.218     c2.206-3.435,6.782-4.43,10.214-2.225c3.436,2.207,4.432,6.779,2.226,10.214l-7.201,11.215     C54.42,321.582,52.037,322.782,49.604,322.782z" fill="#EAE2CA"/></g><g clip-path="url(#SVGID_23_)"><path d="M-1.241,282.442c-1.85,0-3.701-0.689-5.136-2.077c-2.936-2.837-3.016-7.516-0.18-10.452l9.264-9.584     c2.837-2.936,7.516-3.016,10.451-0.178c2.936,2.837,3.016,7.517,0.178,10.452l-9.261,9.583     C2.625,281.688,0.693,282.442-1.241,282.442z" fill="#EAE2CA"/></g><g clip-path="url(#SVGID_23_)"><path d="M64.958,364.358c-1.131,0-2.278-0.26-3.354-0.809c-3.636-1.856-5.08-6.308-3.224-9.944l18.975-37.194     c1.854-3.636,6.306-5.08,9.943-3.226c3.636,1.855,5.081,6.307,3.225,9.943l-18.975,37.195     C70.241,362.886,67.647,364.358,64.958,364.358z" fill="#EAE2CA"/></g><g clip-path="url(#SVGID_23_)"><path d="M110.849,339.338c-0.908,0-1.83-0.168-2.725-0.523c-19.198-7.617-37.74-17.138-55.111-28.298     c-3.436-2.207-4.431-6.78-2.224-10.214c2.206-3.436,6.78-4.431,10.214-2.224c16.572,10.646,34.26,19.729,52.573,26.995     c3.795,1.505,5.65,5.802,4.145,9.597C116.57,337.57,113.789,339.338,110.849,339.338z" fill="#EAE2CA"/></g><g clip-path="url(#SVGID_23_)"><path d="M105.926,351.727c-0.908,0-1.83-0.168-2.726-0.523c-3.795-1.507-5.648-5.804-4.143-9.598l4.924-12.39     c1.506-3.795,5.805-5.649,9.599-4.14c3.794,1.508,5.646,5.805,4.139,9.599l-4.921,12.387     C111.647,349.96,108.866,351.727,105.926,351.727z" fill="#EAE2CA"/></g><g clip-path="url(#SVGID_23_)"><path d="M49.807,322.912c-1.365,0-2.748-0.378-3.982-1.17c-3.438-2.204-4.438-6.776-2.233-10.212l7.194-11.222     c2.205-3.437,6.776-4.435,10.213-2.232c3.437,2.204,4.437,6.776,2.232,10.212l-7.194,11.221     C54.625,321.71,52.241,322.912,49.807,322.912z" fill="#EAE2CA"/></g><g clip-path="url(#SVGID_23_)"><path d="M128.346,389.371c-0.679,0-1.368-0.094-2.053-0.292c-3.922-1.131-6.185-5.229-5.053-9.151l11.574-40.114     c1.132-3.923,5.229-6.184,9.151-5.053c3.922,1.132,6.185,5.229,5.053,9.151l-11.574,40.113     C134.511,387.264,131.555,389.371,128.346,389.371z" fill="#EAE2CA"/></g><g clip-path="url(#SVGID_23_)"><path d="M168.277,356.009c-0.458,0-0.922-0.043-1.388-0.131c-19.986-3.796-39.686-9.508-58.551-16.978     c-3.796-1.503-5.654-5.798-4.152-9.594c1.504-3.795,5.798-5.653,9.594-4.151c18,7.126,36.797,12.576,55.868,16.199     c4.01,0.762,6.645,4.63,5.882,8.641C174.857,353.54,171.757,356.009,168.277,356.009z" fill="#EAE2CA"/></g><g clip-path="url(#SVGID_23_)"><path d="M165.778,369.101c-0.461,0-0.926-0.043-1.395-0.132c-4.01-0.765-6.641-4.636-5.875-8.646l2.499-13.093     c0.766-4.011,4.644-6.636,8.646-5.875c4.011,0.765,6.642,4.635,5.876,8.646l-2.499,13.092     C172.354,366.635,169.255,369.101,165.778,369.101z" fill="#EAE2CA"/></g><g clip-path="url(#SVGID_23_)"><path d="M106.145,351.813c-0.906,0-1.829-0.168-2.723-0.522c-3.795-1.505-5.651-5.802-4.146-9.597l4.912-12.39     c1.505-3.795,5.801-5.651,9.597-4.148c3.795,1.503,5.651,5.8,4.147,9.595l-4.914,12.394     C111.867,350.045,109.086,351.813,106.145,351.813z" fill="#EAE2CA"/></g><g clip-path="url(#SVGID_23_)"><path d="M194.578,401.812c-0.229,0-0.458-0.011-0.689-0.032c-4.065-0.376-7.056-3.976-6.68-8.041l3.843-41.566     c0.377-4.065,3.985-7.051,8.041-6.68c4.065,0.376,7.056,3.976,6.68,8.041l-3.844,41.566     C201.575,398.934,198.353,401.812,194.578,401.812z" fill="#EAE2CA"/></g><g clip-path="url(#SVGID_23_)"><path d="M227.381,361.579c-0.001,0-0.002,0-0.003,0c-20.184-0.007-40.459-1.911-60.264-5.658     c-4.011-0.759-6.648-4.626-5.889-8.637c0.76-4.012,4.627-6.648,8.637-5.889c18.902,3.577,38.256,5.394,57.521,5.4     c4.081,0.001,7.39,3.312,7.389,7.395C234.771,358.271,231.461,361.579,227.381,361.579z" fill="#EAE2CA"/></g><g clip-path="url(#SVGID_23_)"><path d="M227.376,374.906c-0.001,0-0.001,0-0.002,0c-4.082-0.001-7.391-3.311-7.39-7.393l0.005-13.33     c0.002-4.081,3.311-7.389,7.392-7.389c0.001,0,0.002,0,0.003,0c4.082,0.002,7.391,3.313,7.389,7.396l-0.005,13.326     C234.767,371.598,231.456,374.906,227.376,374.906z" fill="#EAE2CA"/></g><g clip-path="url(#SVGID_23_)"><path d="M166.007,369.145c-0.458,0-0.923-0.043-1.389-0.131c-4.011-0.763-6.644-4.632-5.882-8.643l2.49-13.093     c0.762-4.011,4.637-6.645,8.642-5.881c4.011,0.763,6.645,4.632,5.882,8.643l-2.49,13.093     C172.587,366.676,169.486,369.145,166.007,369.145z" fill="#EAE2CA"/></g><g clip-path="url(#SVGID_23_)"><path d="M261.726,401.689c-3.764,0-6.981-2.861-7.35-6.685l-3.997-41.553c-0.391-4.063,2.587-7.674,6.65-8.065     c4.059-0.389,7.675,2.586,8.065,6.65l3.997,41.552c0.391,4.063-2.586,7.674-6.649,8.065     C262.201,401.677,261.962,401.689,261.726,401.689z" fill="#EAE2CA"/></g><g clip-path="url(#SVGID_23_)"><path d="M227.602,361.579c-4.081,0-7.391-3.308-7.392-7.389c-0.001-4.083,3.308-7.393,7.389-7.395     c19.266-0.006,38.619-1.823,57.521-5.4c4.005-0.761,7.878,1.877,8.637,5.889c0.76,4.011-1.878,7.878-5.889,8.637     c-19.805,3.747-40.08,5.651-60.264,5.658C227.604,361.579,227.603,361.579,227.602,361.579z" fill="#EAE2CA"/></g><g clip-path="url(#SVGID_23_)"><path d="M288.976,369.145c-3.479,0-6.58-2.469-7.253-6.013l-2.49-13.093c-0.763-4.011,1.871-7.88,5.882-8.643     c4.003-0.762,7.879,1.871,8.642,5.881l2.49,13.093c0.762,4.011-1.871,7.88-5.882,8.643     C289.898,369.102,289.434,369.145,288.976,369.145z" fill="#EAE2CA"/></g><g clip-path="url(#SVGID_23_)"><path d="M227.606,374.906c-4.082,0-7.391-3.309-7.392-7.39l-0.005-13.326c-0.002-4.083,3.307-7.394,7.389-7.396     c0.001,0,0.002,0,0.003,0c4.081,0,7.39,3.307,7.392,7.389l0.005,13.33c0.001,4.082-3.308,7.392-7.39,7.393     C227.607,374.906,227.607,374.906,227.606,374.906z" fill="#EAE2CA"/></g><g clip-path="url(#SVGID_23_)"><path d="M327.922,388.999c-3.199,0-6.147-2.092-7.092-5.317l-11.727-40.071c-1.146-3.918,1.1-8.024,5.019-9.171     c3.921-1.146,8.022,1.101,9.17,5.018l11.727,40.071c1.146,3.918-1.1,8.024-5.019,9.171     C329.308,388.902,328.608,388.999,327.922,388.999z" fill="#EAE2CA"/></g><g clip-path="url(#SVGID_23_)"><path d="M286.705,356.009c-3.48,0-6.58-2.469-7.253-6.014c-0.763-4.01,1.872-7.879,5.882-8.641     c19.071-3.623,37.868-9.072,55.867-16.199c3.793-1.503,8.09,0.354,9.595,4.151c1.502,3.796-0.356,8.091-4.152,9.594     c-18.865,7.47-38.564,13.182-58.551,16.978C287.627,355.966,287.163,356.009,286.705,356.009z" fill="#EAE2CA"/></g><g clip-path="url(#SVGID_23_)"><path d="M348.838,351.813c-2.941,0-5.723-1.768-6.873-4.668l-4.914-12.394c-1.504-3.795,0.353-8.091,4.147-9.595     c3.797-1.504,8.092,0.352,9.597,4.148l4.912,12.39c1.505,3.795-0.352,8.092-4.146,9.597     C350.667,351.646,349.744,351.813,348.838,351.813z" fill="#EAE2CA"/></g><g clip-path="url(#SVGID_23_)"><path d="M289.204,369.101c-3.477,0-6.576-2.466-7.252-6.008L279.453,350c-0.766-4.01,1.865-7.88,5.876-8.646     c4.001-0.76,7.88,1.865,8.646,5.875l2.499,13.093c0.766,4.01-1.865,7.88-5.876,8.646     C290.13,369.058,289.664,369.101,289.204,369.101z" fill="#EAE2CA"/></g><g clip-path="url(#SVGID_23_)"><path d="M391.231,363.739c-2.681,0-5.266-1.462-6.577-4.009l-19.116-37.122c-1.869-3.629-0.441-8.086,3.188-9.956     c3.629-1.867,8.086-0.443,9.955,3.188l19.116,37.122c1.869,3.629,0.441,8.087-3.188,9.956     C393.527,363.475,392.371,363.739,391.231,363.739z" fill="#EAE2CA"/></g><g clip-path="url(#SVGID_23_)"><path d="M344.134,339.338c-2.94,0-5.722-1.767-6.872-4.667c-1.506-3.794,0.35-8.091,4.145-9.597     c18.313-7.266,36.001-16.349,52.573-26.995c3.434-2.207,8.008-1.211,10.214,2.224c2.207,3.435,1.211,8.008-2.224,10.214     c-17.371,11.16-35.913,20.681-55.111,28.298C345.964,339.17,345.041,339.338,344.134,339.338z" fill="#EAE2CA"/></g><g clip-path="url(#SVGID_23_)"><path d="M405.176,322.912c-2.435,0-4.817-1.201-6.229-3.403l-7.194-11.221c-2.204-3.436-1.204-8.008,2.232-10.212     c3.438-2.204,8.009-1.205,10.213,2.232l7.194,11.222c2.204,3.437,1.204,8.009-2.233,10.212     C407.924,322.534,406.541,322.912,405.176,322.912z" fill="#EAE2CA"/></g><g clip-path="url(#SVGID_23_)"><path d="M349.057,351.727c-2.939,0-5.721-1.766-6.871-4.664l-4.923-12.389c-1.507-3.793,0.346-8.091,4.14-9.599     c3.791-1.508,8.091,0.345,9.599,4.14l4.923,12.389c1.507,3.794-0.346,8.091-4.14,9.599     C350.889,351.558,349.965,351.727,349.057,351.727z" fill="#EAE2CA"/></g><g clip-path="url(#SVGID_23_)"><path d="M449.732,325.912c-2.18,0-4.336-0.958-5.796-2.798l-25.945-32.706c-2.537-3.198-2.001-7.848,1.197-10.385     c3.2-2.537,7.847-2,10.385,1.197l25.944,32.705c2.538,3.198,2.002,7.848-1.196,10.385     C452.963,325.388,451.341,325.912,449.732,325.912z" fill="#EAE2CA"/></g><g clip-path="url(#SVGID_23_)"><path d="M398.176,311.565c-2.431,0-4.81-1.197-6.223-3.392c-2.21-3.433-1.218-8.007,2.216-10.216     c16.984-10.931,33.019-23.65,47.653-37.804c2.935-2.839,7.614-2.76,10.452,0.175s2.76,7.614-0.175,10.452     c-15.332,14.827-32.131,28.153-49.931,39.608C400.933,311.185,399.545,311.565,398.176,311.565z" fill="#EAE2CA"/></g><g clip-path="url(#SVGID_23_)"><path d="M456.224,282.442c-1.935,0-3.866-0.754-5.316-2.255l-9.261-9.583c-2.838-2.936-2.758-7.615,0.178-10.452     c2.934-2.838,7.614-2.757,10.451,0.178l9.263,9.584c2.837,2.936,2.757,7.615-0.179,10.452     C459.925,281.752,458.073,282.442,456.224,282.442z" fill="#EAE2CA"/></g><g clip-path="url(#SVGID_23_)"><path d="M405.378,322.782c-2.434,0-4.815-1.2-6.228-3.399l-7.201-11.215c-2.206-3.435-1.21-8.008,2.226-10.214     c3.434-2.206,8.009-1.21,10.214,2.225l7.203,11.218c2.205,3.436,1.208,8.008-2.228,10.214     C408.129,322.403,406.745,322.782,405.378,322.782z" fill="#EAE2CA"/></g><g clip-path="url(#SVGID_23_)"><path d="M6.346,235.911c-1.601,0-3.212-0.518-4.567-1.583c-3.207-2.525-3.761-7.172-1.236-10.38l25.816-32.807     c2.523-3.208,7.173-3.761,10.379-1.238c3.209,2.524,3.763,7.172,1.238,10.38l-25.816,32.807     C10.701,234.943,8.534,235.911,6.346,235.911z" fill="#EAE2CA"/></g><g clip-path="url(#SVGID_23_)"><path d="M56.807,220.698c-1.37,0-2.756-0.38-3.993-1.177c-17.798-11.454-34.598-24.779-49.931-39.608     c-2.935-2.837-3.013-7.517-0.175-10.452c2.837-2.934,7.517-3.015,10.452-0.175c14.637,14.155,30.67,26.874,47.653,37.804     c3.434,2.209,4.426,6.783,2.216,10.216C61.616,219.501,59.236,220.698,56.807,220.698z" fill="#EAE2CA"/></g><g clip-path="url(#SVGID_23_)"><path d="M49.604,231.915c-1.367,0-2.751-0.379-3.986-1.172c-3.436-2.206-4.433-6.778-2.228-10.214l7.203-11.218     c2.206-3.435,6.782-4.43,10.214-2.225c3.436,2.207,4.432,6.779,2.226,10.214l-7.201,11.215     C54.42,230.715,52.037,231.915,49.604,231.915z" fill="#EAE2CA"/></g><g clip-path="url(#SVGID_23_)"><path d="M-1.241,191.575c-1.85,0-3.701-0.69-5.136-2.077c-2.936-2.837-3.016-7.517-0.18-10.452l9.264-9.583     c2.837-2.936,7.516-3.016,10.451-0.178c2.936,2.837,3.016,7.517,0.178,10.452l-9.261,9.583     C2.625,190.82,0.693,191.575-1.241,191.575z" fill="#EAE2CA"/></g><g clip-path="url(#SVGID_23_)"><path d="M64.958,273.491c-1.131,0-2.278-0.26-3.354-0.809c-3.636-1.856-5.08-6.308-3.224-9.944l18.975-37.193     c1.854-3.636,6.306-5.082,9.943-3.226c3.636,1.855,5.081,6.307,3.225,9.943l-18.975,37.194     C70.241,272.018,67.647,273.491,64.958,273.491z" fill="#EAE2CA"/></g><g clip-path="url(#SVGID_23_)"><path d="M110.849,248.47c-0.908,0-1.83-0.168-2.725-0.523c-19.196-7.616-37.738-17.136-55.111-28.298     c-3.436-2.206-4.431-6.779-2.224-10.214c2.206-3.437,6.78-4.43,10.214-2.224c16.574,10.647,34.262,19.729,52.573,26.995     c3.795,1.505,5.65,5.802,4.145,9.596C116.57,246.703,113.789,248.47,110.849,248.47z" fill="#EAE2CA"/></g><g clip-path="url(#SVGID_23_)"><path d="M105.926,260.859c-0.908,0-1.83-0.168-2.726-0.523c-3.795-1.507-5.648-5.804-4.143-9.598l4.924-12.39     c1.506-3.795,5.801-5.649,9.599-4.141c3.793,1.507,5.646,5.805,4.139,9.599l-4.921,12.388     C111.647,259.093,108.866,260.859,105.926,260.859z" fill="#EAE2CA"/></g><g clip-path="url(#SVGID_23_)"><path d="M49.807,232.045c-1.365,0-2.748-0.378-3.982-1.17c-3.438-2.204-4.438-6.776-2.233-10.212l7.194-11.221     c2.203-3.438,6.776-4.436,10.212-2.233c3.438,2.204,4.438,6.775,2.233,10.212l-7.194,11.223     C54.625,230.843,52.241,232.045,49.807,232.045z" fill="#EAE2CA"/></g><g clip-path="url(#SVGID_23_)"><path d="M128.346,298.503c-0.679,0-1.368-0.094-2.053-0.292c-3.922-1.131-6.185-5.229-5.053-9.151l11.574-40.115     c1.132-3.923,5.229-6.185,9.151-5.053c3.922,1.131,6.185,5.229,5.053,9.151l-11.574,40.114     C134.511,296.396,131.555,298.503,128.346,298.503z" fill="#EAE2CA"/></g><g clip-path="url(#SVGID_23_)"><path d="M168.277,265.142c-0.458,0-0.922-0.043-1.388-0.131c-19.983-3.795-39.684-9.507-58.551-16.978     c-3.796-1.502-5.654-5.798-4.152-9.593c1.504-3.796,5.798-5.655,9.594-4.152c18.002,7.127,36.799,12.577,55.868,16.199     c4.01,0.762,6.645,4.631,5.882,8.641C174.857,262.672,171.757,265.142,168.277,265.142z" fill="#EAE2CA"/></g><g clip-path="url(#SVGID_23_)"><path d="M165.778,278.234c-0.461,0-0.926-0.043-1.395-0.132c-4.009-0.765-6.641-4.636-5.875-8.646l2.499-13.092     c0.766-4.011,4.644-6.639,8.646-5.876c4.011,0.765,6.642,4.636,5.876,8.646l-2.499,13.092     C172.354,275.768,169.255,278.234,165.778,278.234z" fill="#EAE2CA"/></g><g clip-path="url(#SVGID_23_)"><path d="M106.145,260.946c-0.906,0-1.829-0.168-2.723-0.523c-3.795-1.505-5.651-5.801-4.146-9.596l4.912-12.391     c1.505-3.795,5.805-5.652,9.595-4.149c3.797,1.504,5.653,5.8,4.149,9.596l-4.914,12.394     C111.867,259.178,109.086,260.946,106.145,260.946z" fill="#EAE2CA"/></g><g clip-path="url(#SVGID_23_)"><path d="M194.578,310.945c-0.229,0-0.458-0.011-0.689-0.032c-4.065-0.376-7.056-3.976-6.68-8.041l3.843-41.567     c0.377-4.065,3.985-7.051,8.041-6.68c4.065,0.376,7.056,3.976,6.68,8.041l-3.844,41.567     C201.575,308.067,198.353,310.945,194.578,310.945z" fill="#EAE2CA"/></g><g clip-path="url(#SVGID_23_)"><path d="M227.381,270.712c-0.001,0-0.002,0-0.003,0c-20.184-0.007-40.459-1.912-60.264-5.659     c-4.011-0.759-6.648-4.625-5.889-8.637c0.76-4.012,4.627-6.649,8.637-5.889c18.903,3.577,38.257,5.394,57.521,5.401     c4.081,0.001,7.391,3.313,7.389,7.395C234.771,267.404,231.461,270.712,227.381,270.712z" fill="#EAE2CA"/></g><g clip-path="url(#SVGID_23_)"><path d="M227.376,284.039c-0.001,0-0.001,0-0.002,0c-4.082-0.001-7.391-3.311-7.39-7.393l0.005-13.33     c0.002-4.081,3.311-7.388,7.392-7.388c0.001,0,0.002,0,0.003,0c4.082,0.002,7.391,3.313,7.389,7.395l-0.005,13.326     C234.767,280.73,231.456,284.039,227.376,284.039z" fill="#EAE2CA"/></g><g clip-path="url(#SVGID_23_)"><path d="M166.007,278.277c-0.458,0-0.923-0.043-1.389-0.131c-4.011-0.763-6.644-4.632-5.882-8.643l2.49-13.093     c0.762-4.011,4.637-6.645,8.642-5.882c4.011,0.762,6.645,4.631,5.882,8.642l-2.49,13.094     C172.587,275.808,169.486,278.277,166.007,278.277z" fill="#EAE2CA"/></g><g clip-path="url(#SVGID_23_)"><path d="M261.726,310.821c-3.764,0-6.981-2.861-7.35-6.684l-3.997-41.553c-0.391-4.063,2.587-7.674,6.65-8.065     c4.059-0.388,7.675,2.586,8.065,6.65l3.997,41.552c0.391,4.064-2.586,7.675-6.649,8.066     C262.201,310.81,261.962,310.821,261.726,310.821z" fill="#EAE2CA"/></g><g clip-path="url(#SVGID_23_)"><path d="M227.602,270.712c-4.081,0-7.39-3.308-7.392-7.389c-0.002-4.082,3.308-7.393,7.389-7.395     c19.265-0.007,38.618-1.824,57.521-5.401c4.005-0.759,7.878,1.877,8.637,5.889c0.76,4.011-1.878,7.878-5.889,8.637     c-19.806,3.748-40.08,5.652-60.264,5.659C227.604,270.712,227.603,270.712,227.602,270.712z" fill="#EAE2CA"/></g><g clip-path="url(#SVGID_23_)"><path d="M288.976,278.277c-3.479,0-6.58-2.468-7.253-6.013l-2.49-13.094c-0.763-4.011,1.871-7.88,5.882-8.642     c4.003-0.762,7.879,1.871,8.642,5.882l2.49,13.093c0.762,4.011-1.871,7.88-5.882,8.643     C289.898,278.234,289.434,278.277,288.976,278.277z" fill="#EAE2CA"/></g><g clip-path="url(#SVGID_23_)"><path d="M227.606,284.039c-4.082,0-7.391-3.309-7.392-7.39l-0.005-13.326c-0.002-4.082,3.307-7.393,7.389-7.395     c0.001,0,0.002,0,0.003,0c4.081,0,7.39,3.307,7.392,7.388l0.005,13.33c0.001,4.082-3.308,7.392-7.39,7.393     C227.607,284.039,227.607,284.039,227.606,284.039z" fill="#EAE2CA"/></g><g clip-path="url(#SVGID_23_)"><path d="M327.922,298.132c-3.199,0-6.147-2.092-7.092-5.317l-11.727-40.071c-1.146-3.918,1.1-8.024,5.019-9.17     c3.921-1.148,8.022,1.1,9.17,5.017l11.727,40.071c1.146,3.918-1.1,8.024-5.019,9.171     C329.308,298.035,328.608,298.132,327.922,298.132z" fill="#EAE2CA"/></g><g clip-path="url(#SVGID_23_)"><path d="M286.705,265.142c-3.48,0-6.58-2.469-7.253-6.014c-0.763-4.01,1.872-7.879,5.882-8.641     c19.069-3.622,37.865-9.071,55.867-16.199c3.798-1.504,8.091,0.356,9.595,4.152c1.502,3.795-0.356,8.091-4.152,9.593     c-18.867,7.47-38.567,13.182-58.551,16.978C287.627,265.099,287.163,265.142,286.705,265.142z" fill="#EAE2CA"/></g><g clip-path="url(#SVGID_23_)"><path d="M348.838,260.946c-2.941,0-5.723-1.768-6.873-4.669l-4.914-12.394c-1.504-3.796,0.353-8.092,4.149-9.596     c3.791-1.502,8.09,0.353,9.595,4.149l4.912,12.391c1.505,3.795-0.352,8.091-4.146,9.596     C350.667,260.778,349.744,260.946,348.838,260.946z" fill="#EAE2CA"/></g><g clip-path="url(#SVGID_23_)"><path d="M289.204,278.234c-3.477,0-6.576-2.466-7.252-6.008l-2.499-13.092c-0.766-4.01,1.865-7.881,5.876-8.646     c4.001-0.763,7.88,1.865,8.646,5.876l2.499,13.092c0.766,4.01-1.866,7.881-5.876,8.646     C290.13,278.19,289.664,278.234,289.204,278.234z" fill="#EAE2CA"/></g><g clip-path="url(#SVGID_23_)"><path d="M391.231,272.872c-2.681,0-5.266-1.462-6.577-4.009l-19.116-37.122c-1.869-3.629-0.441-8.087,3.188-9.956     c3.629-1.867,8.086-0.442,9.955,3.188l19.116,37.122c1.869,3.629,0.441,8.087-3.188,9.956     C393.527,272.607,392.371,272.872,391.231,272.872z" fill="#EAE2CA"/></g><g clip-path="url(#SVGID_23_)"><path d="M344.134,248.47c-2.94,0-5.722-1.768-6.872-4.668c-1.506-3.794,0.35-8.091,4.145-9.596     c18.312-7.265,35.999-16.348,52.573-26.995c3.434-2.206,8.008-1.211,10.214,2.224c2.207,3.435,1.211,8.008-2.224,10.214     c-17.373,11.162-35.915,20.683-55.111,28.298C345.964,248.302,345.041,248.47,344.134,248.47z" fill="#EAE2CA"/></g><g clip-path="url(#SVGID_23_)"><path d="M405.176,232.045c-2.435,0-4.817-1.201-6.229-3.403l-7.194-11.223c-2.204-3.437-1.204-8.008,2.233-10.212     c3.436-2.203,8.01-1.204,10.212,2.233l7.194,11.221c2.204,3.437,1.204,8.009-2.233,10.212     C407.924,231.667,406.541,232.045,405.176,232.045z" fill="#EAE2CA"/></g><g clip-path="url(#SVGID_23_)"><path d="M349.057,260.859c-2.939,0-5.721-1.766-6.871-4.664l-4.923-12.39c-1.507-3.793,0.347-8.091,4.14-9.599     s8.093,0.345,9.599,4.141l4.923,12.389c1.507,3.794-0.346,8.091-4.14,9.599C350.889,260.691,349.965,260.859,349.057,260.859z" fill="#EAE2CA"/></g><g clip-path="url(#SVGID_23_)"><path d="M449.732,235.044c-2.18,0-4.336-0.959-5.796-2.798l-25.945-32.707c-2.537-3.198-2.001-7.848,1.197-10.385     c3.2-2.537,7.847-2,10.385,1.197l25.944,32.706c2.538,3.198,2.002,7.848-1.196,10.385     C452.963,234.521,451.341,235.044,449.732,235.044z" fill="#EAE2CA"/></g><g clip-path="url(#SVGID_23_)"><path d="M398.176,220.698c-2.431,0-4.81-1.197-6.223-3.393c-2.21-3.433-1.218-8.007,2.216-10.216     c16.983-10.93,33.017-23.648,47.653-37.804c2.935-2.839,7.614-2.76,10.452,0.175s2.76,7.614-0.175,10.452     c-15.333,14.829-32.133,28.155-49.931,39.608C400.932,220.317,399.545,220.698,398.176,220.698z" fill="#EAE2CA"/></g><g clip-path="url(#SVGID_23_)"><path d="M456.224,191.575c-1.935,0-3.866-0.754-5.316-2.255l-9.261-9.583c-2.838-2.936-2.758-7.615,0.178-10.452     c2.934-2.838,7.614-2.757,10.451,0.178l9.263,9.583c2.837,2.936,2.757,7.615-0.179,10.452     C459.925,190.884,458.073,191.575,456.224,191.575z" fill="#EAE2CA"/></g><g clip-path="url(#SVGID_23_)"><path d="M405.378,231.915c-2.434,0-4.815-1.2-6.228-3.399l-7.201-11.215c-2.206-3.435-1.21-8.008,2.226-10.214     c3.434-2.205,8.009-1.21,10.214,2.225l7.203,11.218c2.205,3.436,1.208,8.008-2.228,10.214     C408.129,231.536,406.745,231.915,405.378,231.915z" fill="#EAE2CA"/></g></g></g></svg>